<?xml version="1.0" encoding="iso-8859-1"?>
<!-- Generator: Adobe Illustrator 18.0.0, SVG Export Plug-In . SVG Version: 6.00 Build 0)  -->
<!DOCTYPE svg PUBLIC "-//W3C//DTD SVG 1.1//EN" "http://www.w3.org/Graphics/SVG/1.1/DTD/svg11.dtd">
<svg version="1.1" id="Capa_1" xmlns="http://www.w3.org/2000/svg" xmlns:xlink="http://www.w3.org/1999/xlink" x="0px" y="0px"
	 viewBox="0 0 330 330" style="enable-background:new 0 0 330 330;" xml:space="preserve">
<path d="M270,105V15c0-8.284-6.716-15-15-15H75c-8.284,0-15,6.716-15,15v90c0,3.978,1.581,7.794,4.394,10.606l30.923,30.923
	C73.666,165.777,60,193.82,60,225c0,57.897,47.103,105,105,105s105-47.103,105-105c0-31.18-13.666-59.223-35.316-78.471
	l30.923-30.923C268.419,112.794,270,108.978,270,105z M165,120c-5.093,0-10.099,0.372-15,1.076V30h30v91.076
	C175.099,120.372,170.093,120,165,120z M90,30h30v98.787l-30-30V30z M240,225c0,41.355-33.645,75-75,75s-75-33.645-75-75
	s33.645-75,75-75S240,183.645,240,225z M240,98.787l-30,30V30h30V98.787z"/>
<g>
</g>
<g>
</g>
<g>
</g>
<g>
</g>
<g>
</g>
<g>
</g>
<g>
</g>
<g>
</g>
<g>
</g>
<g>
</g>
<g>
</g>
<g>
</g>
<g>
</g>
<g>
</g>
<g>
</g>
</svg>
