<?xml version="1.0" encoding="iso-8859-1"?>
<!-- Generator: Adobe Illustrator 18.0.0, SVG Export Plug-In . SVG Version: 6.00 Build 0)  -->
<!DOCTYPE svg PUBLIC "-//W3C//DTD SVG 1.1//EN" "http://www.w3.org/Graphics/SVG/1.1/DTD/svg11.dtd">
<svg version="1.1" id="Capa_1" xmlns="http://www.w3.org/2000/svg" xmlns:xlink="http://www.w3.org/1999/xlink" x="0px" y="0px"
	 viewBox="0 0 330.001 330.001" style="enable-background:new 0 0 330.001 330.001;" xml:space="preserve">
<g>
	<path d="M324.57,93.45c-4.387-3.636-10.455-4.47-15.661-2.156l-78.443,34.863L177.481,46.68c-2.781-4.173-7.465-6.68-12.481-6.68
		c-5.015,0-9.699,2.507-12.481,6.68l-52.984,79.477L21.093,91.294c-5.206-2.313-11.274-1.479-15.662,2.156
		c-4.387,3.634-6.337,9.44-5.032,14.986l40,170c1.594,6.775,7.64,11.565,14.601,11.565h109.998c0.001,0,0.003,0,0.004,0H275
		c6.961,0,13.007-4.789,14.602-11.565l40-170C330.907,102.89,328.957,97.084,324.57,93.45z M263.121,260.001h-97.79
		c-0.218-0.004-0.436-0.004-0.653,0H66.881l-30.358-129.02l62.385,27.727c6.678,2.966,14.52,0.692,18.573-5.387L165,82.043
		l47.52,71.278c4.053,6.078,11.896,8.352,18.572,5.387l62.386-27.727L263.121,260.001z"/>
	<path d="M175.607,164.394c-5.857-5.858-15.355-5.858-21.213,0l-20,20c-5.858,5.857-5.858,15.355,0,21.213l20,20
		c2.929,2.929,6.768,4.394,10.606,4.394c3.839,0,7.678-1.465,10.606-4.394l20-20c5.858-5.857,5.858-15.355,0-21.213L175.607,164.394
		z"/>
</g>
<g>
</g>
<g>
</g>
<g>
</g>
<g>
</g>
<g>
</g>
<g>
</g>
<g>
</g>
<g>
</g>
<g>
</g>
<g>
</g>
<g>
</g>
<g>
</g>
<g>
</g>
<g>
</g>
<g>
</g>
</svg>
