<?xml version="1.0" encoding="iso-8859-1"?>
<!-- Generator: Adobe Illustrator 18.0.0, SVG Export Plug-In . SVG Version: 6.00 Build 0)  -->
<!DOCTYPE svg PUBLIC "-//W3C//DTD SVG 1.1//EN" "http://www.w3.org/Graphics/SVG/1.1/DTD/svg11.dtd">
<svg version="1.1" id="Capa_1" xmlns="http://www.w3.org/2000/svg" xmlns:xlink="http://www.w3.org/1999/xlink" x="0px" y="0px"
	 viewBox="0 0 306.033 306.033" style="enable-background:new 0 0 306.033 306.033;" xml:space="preserve">
<path d="M297.997,205.216l0.02-24.171c0-0.246-0.024-0.484-0.036-0.727l-0.013-19.285c0-35.841-29.159-65-65-65
	c-0.007,0-0.013,0.001-0.02,0.001h-44.348l15.549-30.895c3.108-6.203,4.752-13.167,4.752-20.139c0-24.813-20.187-45-45-45
	c-17.156,0-32.584,9.535-40.264,24.887L71.076,129.999h-48.06c-8.284,0-15,6.716-15,15v110c0,8.284,6.715,14.999,14.999,15
	l50.768,0.004c19.961,22.992,48.411,36.029,79.185,36.029h80c35.841,0,65-29.159,65-64.988l0.004-5.125
	c0.018-0.298,0.045-0.594,0.045-0.897L297.997,205.216z M232.968,276.033h-80c-23.826,0-45.707-10.946-60.032-30.033
	c-2.833-3.774-7.276-5.995-11.996-5.996l-42.923-0.004v-80.002h42.33c5.682,0,10.875-3.21,13.416-8.292l56.706-113.401
	c2.564-5.124,7.71-8.307,13.433-8.307c8.271,0,15,6.729,15,15c0,2.362-0.529,4.616-1.561,6.675l-26.48,52.616
	c-2.341,4.65-2.103,10.181,0.628,14.612c2.731,4.432,7.564,7.131,12.77,7.131h68.709c0.005,0,0.009-0.001,0.013-0.001
	c19.293,0.007,34.987,15.705,34.987,35.009l0.029,44.17l-0.029,35.82C267.968,260.332,252.267,276.033,232.968,276.033z"/>
<g>
</g>
<g>
</g>
<g>
</g>
<g>
</g>
<g>
</g>
<g>
</g>
<g>
</g>
<g>
</g>
<g>
</g>
<g>
</g>
<g>
</g>
<g>
</g>
<g>
</g>
<g>
</g>
<g>
</g>
</svg>
