<?xml version="1.0" encoding="iso-8859-1"?>
<!-- Generator: Adobe Illustrator 19.0.0, SVG Export Plug-In . SVG Version: 6.00 Build 0)  -->
<svg version="1.1" id="Layer_1" xmlns="http://www.w3.org/2000/svg" xmlns:xlink="http://www.w3.org/1999/xlink" x="0px" y="0px"
	 viewBox="0 0 512 512" style="enable-background:new 0 0 512 512;" xml:space="preserve">
<path style="fill:#334F55;" d="M510.502,366.949c-0.103-3.587-2.371-6.757-5.739-8.007l-53.084-19.662
	c36.16-34.064,58.6-71.886,58.6-100.554c0-51.576-39.513-67.995-64.687-70.134c-4.541-9.573-11.213-23.175-19.149-38.032
	l-5.071-10.142c-0.44-0.877-1.043-1.621-1.718-2.287c-21.903-39.207-50.624-81.756-72.136-81.756H162.761
	c-21.512,0-50.233,42.549-72.136,81.757c-0.675,0.666-1.279,1.411-1.718,2.287l-5.076,10.152
	c-7.934,14.853-14.604,28.451-19.144,38.022C39.513,170.732,0,187.15,0,238.726c0,33.662,30.87,79.967,78.657,117.96
	c53.38,42.451,117.706,66.796,176.482,66.796c37.89,0,78.073-10.168,116.157-28.731l38.27,76.033
	c1.125,2.234,3.153,3.883,5.567,4.536c0.756,0.206,1.521,0.305,2.294,0.305c1.684,0,3.351-0.485,4.794-1.418l47.959-31.145
	c2.019-1.315,3.411-3.398,3.858-5.765c0.438-2.371-0.112-4.816-1.521-6.77l-17.137-23.708l43.84,22.248
	c1.254,0.64,2.612,0.954,3.978,0.954c1.641,0,3.273-0.46,4.708-1.366c2.62-1.658,4.176-4.575,4.09-7.677L510.502,366.949z"/>
<path style="fill:#83A6E2;" d="M428.614,174.254c-20.096,13.588-60.554,38.078-81.097,38.078c-14.168,0-28.542-4.111-43.775-8.459
	c-15.714-4.494-31.978-9.137-48.603-9.137s-32.889,4.644-48.603,9.137c-15.233,4.347-29.607,8.459-43.775,8.459
	c-20.517,0-60.993-24.491-81.097-38.078l15.591-31.182c1.779-3.342,3.565-6.653,5.365-9.92h305.033
	c1.819,3.303,3.625,6.649,5.423,10.028L428.614,174.254z"/>
<path style="fill:#334F55;" d="M389.393,168.339c-9.408-16.277-26.926-26.389-45.716-26.389c-18.79,0-36.309,10.113-45.717,26.389
	c-1.581,2.724-1.581,6.083,0,8.806c9.408,16.277,26.926,26.39,45.717,26.39c18.79,0,36.308-10.113,45.717-26.389
	C390.974,174.422,390.974,171.062,389.393,168.339z"/>
<path style="fill:#EAE8D2;" d="M343.677,185.939c-10.731,0-20.844-4.953-27.468-13.197c6.624-8.244,16.737-13.197,27.468-13.197
	c10.731,0,20.844,4.953,27.468,13.197C364.52,180.986,354.408,185.939,343.677,185.939z"/>
<path style="fill:#334F55;" d="M167.719,141.949c-18.79,0-36.308,10.113-45.717,26.389c-1.581,2.724-1.581,6.083,0,8.806
	c9.408,16.277,26.926,26.39,45.717,26.39s36.308-10.113,45.717-26.389c1.581-2.724,1.581-6.083,0-8.806
	C204.027,152.062,186.509,141.949,167.719,141.949z"/>
<path style="fill:#EAE8D2;" d="M167.719,185.939c-10.731,0-20.844-4.953-27.468-13.197c6.624-8.244,16.737-13.197,27.468-13.197
	s20.844,4.953,27.468,13.197C188.562,180.986,178.45,185.939,167.719,185.939z"/>
<g>
	<path style="fill:#C5D35E;" d="M162.761,53.97h184.756c9.572,0,29.52,26.536,50.129,61.585H112.626
		C133.234,80.506,153.184,53.97,162.761,53.97z"/>
	<path style="fill:#C5D35E;" d="M17.596,238.726c0-46.23,38.883-51.978,50.161-52.676c12.962,9.042,64.852,43.878,95.004,43.878
		c16.625,0,32.889-4.644,48.603-9.137c15.233-4.347,29.607-8.459,43.775-8.459s28.542,4.111,43.775,8.459
		c15.714,4.494,31.978,9.137,48.603,9.137c30.151,0,82.038-34.834,95.003-43.877c11.32,0.704,50.163,6.469,50.163,52.675
		c0,53.621-112.388,167.16-237.543,167.16S17.596,292.347,17.596,238.726z"/>
</g>
<g>
	<path style="fill:#83A6E2;" d="M420.873,454.099l-33.976-67.487c7.562-4.215,15.012-8.753,22.315-13.625l43.631,60.354
		L420.873,454.099z"/>
	<path style="fill:#83A6E2;" d="M435.29,376.898c-0.618-0.316-1.279-0.379-1.926-0.537l-9.781-13.531
		c2.698-2.015,5.391-4.04,8.038-6.144c1.741-1.384,3.409-2.801,5.104-4.206c0.042,0.016,0.069,0.053,0.111,0.069l56.241,20.83
		l0.919,33.306L435.29,376.898z"/>
</g>
<path style="fill:#334F55;" d="M437.549,282.961c-1.461-0.361-36.059-8.446-78.013,1.048c-16.745,3.785-34.221,10.753-51.112,17.488
	c-21.178,8.437-41.171,16.41-55.485,16.41c-15.852,0-36.661-8.244-58.681-16.973c-16.333-6.478-33.224-13.171-49.23-16.827
	c-41.644-9.528-75.341-1.486-76.741-1.138l-8.549,2.101l4.201,17.085l8.54-2.096c0.309-0.077,30.973-7.406,68.63,1.203
	c14.692,3.355,30.947,9.799,46.661,16.028c23.636,9.369,45.948,18.214,65.168,18.214c17.69,0,39.212-8.579,61.998-17.66
	c16.264-6.487,33.087-13.192,48.483-16.668c37.812-8.54,69.722-1.173,70.031-1.104l8.549,2.028l4.09-17.089L437.549,282.961z"/>
<g>
</g>
<g>
</g>
<g>
</g>
<g>
</g>
<g>
</g>
<g>
</g>
<g>
</g>
<g>
</g>
<g>
</g>
<g>
</g>
<g>
</g>
<g>
</g>
<g>
</g>
<g>
</g>
<g>
</g>
</svg>
