<?xml version="1.0" encoding="iso-8859-1"?>
<!-- Generator: Adobe Illustrator 19.0.0, SVG Export Plug-In . SVG Version: 6.00 Build 0)  -->
<svg version="1.1" id="Layer_1" xmlns="http://www.w3.org/2000/svg" xmlns:xlink="http://www.w3.org/1999/xlink" x="0px" y="0px"
	 viewBox="0 0 512 512" style="enable-background:new 0 0 512 512;" xml:space="preserve">
<path style="fill:#334F55;" d="M509.144,132.416c-1.814-1.648-4.254-2.441-6.686-2.203l-67.567,6.757L478.5,88.23
	c3.187-3.568,2.898-9.038-0.661-12.237l-43.39-39.051c-1.915-1.733-4.5-2.526-7.093-2.131c-2.559,0.381-4.822,1.894-6.152,4.114
	l-46.744,77.907c-11.159-12.854-22.14-21.373-31.68-21.373H160.542c-21.218,0-49.548,41.969-71.153,80.642
	c-0.666,0.657-1.261,1.392-1.694,2.256l-5.007,10.013c-7.826,14.65-14.405,28.063-18.883,37.504C38.974,227.984,0,244.179,0,295.052
	c0,33.203,30.449,78.877,77.585,116.352c52.652,41.873,116.102,65.885,174.076,65.885s121.424-24.013,174.076-65.885
	c47.135-37.475,77.585-83.149,77.585-116.352c0-50.873-38.974-67.068-63.805-69.178c-3.248-6.846-7.598-15.78-12.726-25.758
	l76.099,3.805c0.144,0.008,0.288,0.013,0.432,0.013c2.22,0,4.364-0.852,5.983-2.39c1.72-1.64,2.695-3.911,2.695-6.288v-56.407
	C512,136.395,510.966,134.06,509.144,132.416z"/>
<path style="fill:#F1854C;" d="M422.771,231.459c-19.822,13.402-59.729,37.559-79.992,37.559c-13.975,0-28.153-4.055-43.178-8.343
	c-15.5-4.432-31.542-9.013-47.941-9.013s-32.441,4.58-47.941,9.013c-15.025,4.288-29.203,8.343-43.178,8.343
	c-20.237,0-60.161-24.157-79.992-37.559l15.379-30.757c1.755-3.297,3.516-6.562,5.292-9.785h300.875
	c1.794,3.257,3.575,6.558,5.349,9.891L422.771,231.459z"/>
<path style="fill:#334F55;" d="M384.085,225.624c-9.28-16.055-26.559-26.03-45.093-26.03s-35.814,9.975-45.093,26.03
	c-1.559,2.686-1.559,6,0,8.686c9.28,16.055,26.559,26.03,45.093,26.03s35.814-9.975,45.093-26.03
	C385.644,231.624,385.644,228.31,384.085,225.624z"/>
<path style="fill:#EAE8D2;" d="M338.992,242.984c-10.585,0-20.559-4.886-27.093-13.017c6.534-8.131,16.509-13.017,27.093-13.017
	s20.559,4.886,27.093,13.017C359.551,238.098,349.576,242.984,338.992,242.984z"/>
<path style="fill:#334F55;" d="M165.432,199.594c-18.534,0-35.814,9.975-45.093,26.03c-1.559,2.686-1.559,6,0,8.686
	c9.28,16.055,26.559,26.03,45.093,26.03s35.814-9.975,45.093-26.03c1.559-2.686,1.559-6,0-8.686
	C201.246,209.569,183.966,199.594,165.432,199.594z"/>
<path style="fill:#C5D35E;" d="M485.966,295.052c0,52.89-110.856,164.881-234.305,164.881S17.356,347.942,17.356,295.052
	c0-45.6,38.353-51.269,49.477-51.958c12.785,8.918,63.968,43.28,93.709,43.28c16.398,0,32.441-4.58,47.941-9.013
	c15.025-4.288,29.203-8.343,43.178-8.343c13.975,0,28.153,4.055,43.178,8.343c15.5,4.432,31.542,9.013,47.941,9.013
	c29.74,0,80.92-34.359,93.708-43.279C447.653,243.789,485.966,249.475,485.966,295.052z"/>
<path style="fill:#EAE8D2;" d="M165.432,242.984c-10.585,0-20.559-4.886-27.093-13.017c6.534-8.131,16.509-13.017,27.093-13.017
	s20.559,4.886,27.093,13.017C185.992,238.098,176.017,242.984,165.432,242.984z"/>
<path style="fill:#334F55;" d="M381.831,347.12c0,4.716-1.627,6.814-3.051,8.114c-10.009,9.191-42.576,6.369-74.076,3.648
	c-17.543-1.517-35.687-3.085-53.043-3.085s-35.5,1.568-53.042,3.085c-31.483,2.729-64.076,5.547-74.076-3.648
	c-1.424-1.301-3.051-3.399-3.051-8.115v-8.678h-17.356v8.678c0,8.593,2.915,15.627,8.67,20.903
	c15.636,14.352,48.864,11.475,87.314,8.152c17.17-1.487,34.932-3.021,51.542-3.021s34.373,1.534,51.542,3.021
	c16.119,1.39,31.314,2.708,44.687,2.708c18.525,0,33.542-2.526,42.627-10.86c5.754-5.275,8.669-12.309,8.669-20.903v-8.678h-17.356
	V347.12z"/>
<path style="fill:#F1854C;" d="M430.669,56.887l29.127,26.216l-60.716,67.86c-4.284-6.815-8.683-13.419-13.128-19.553
	L430.669,56.887z"/>
<path style="fill:#C5D35E;" d="M160.542,112.815H342.78c9.442,0,29.118,26.174,49.446,60.746H111.091
	C131.417,138.989,151.095,112.815,160.542,112.815z"/>
<path style="fill:#F1854C;" d="M494.644,186.132l-77.055-3.851l-1.962-3.925c-0.434-0.865-1.029-1.598-1.695-2.256
	c-1.78-3.187-3.605-6.389-5.468-9.595l9.285-10.378l76.895-7.69V186.132z"/>
<g>
</g>
<g>
</g>
<g>
</g>
<g>
</g>
<g>
</g>
<g>
</g>
<g>
</g>
<g>
</g>
<g>
</g>
<g>
</g>
<g>
</g>
<g>
</g>
<g>
</g>
<g>
</g>
<g>
</g>
</svg>
