<?xml version="1.0" encoding="iso-8859-1"?>
<!-- Generator: Adobe Illustrator 19.0.0, SVG Export Plug-In . SVG Version: 6.00 Build 0)  -->
<svg version="1.1" id="Layer_1" xmlns="http://www.w3.org/2000/svg" xmlns:xlink="http://www.w3.org/1999/xlink" x="0px" y="0px"
	 viewBox="0 0 512 512" style="enable-background:new 0 0 512 512;" xml:space="preserve">
<path style="fill:#334F55;" d="M447.095,207.699c-4.557-9.605-11.251-23.253-19.213-38.16l-5.088-10.176
	c-0.441-0.88-1.046-1.626-1.724-2.295c-21.977-39.339-50.795-82.032-72.379-82.032H163.31c-9.606,0-20.648,8.493-31.882,21.348
	L94.526,51.755c-2.854-3.457-7.853-4.228-11.629-1.767L48.138,72.686c-2.362,1.543-3.845,4.121-3.991,6.94
	c-0.138,2.815,1.069,5.53,3.259,7.31l54.652,44.327l-69.135-16.271c-2.414-0.565-4.897-0.112-6.914,1.246
	c-2.035,1.353-3.414,3.487-3.819,5.897L13.362,175.1c-0.448,2.664,0.354,5.379,2.164,7.379c1.681,1.853,4.06,2.901,6.543,2.901
	c0.198,0,0.388-0.004,0.586-0.022l55.097-3.673c-5.175,10.075-9.564,19.092-12.847,26.013C39.646,209.846,0,226.32,0,278.07
	c0,33.776,30.974,80.237,78.922,118.358c53.56,42.595,118.103,67.021,177.078,67.021s123.517-24.427,177.078-67.021
	C481.026,358.307,512,311.846,512,278.07C512,226.32,472.354,209.846,447.095,207.699z"/>
<path style="fill:#E65F58;" d="M430.06,213.38c-20.164,13.634-60.759,38.207-81.371,38.207c-14.216,0-28.638-4.125-43.922-8.487
	c-15.767-4.509-32.086-9.168-48.767-9.168s-33,4.659-48.767,9.168c-15.284,4.362-29.707,8.487-43.922,8.487
	c-20.586,0-61.198-24.573-81.371-38.207l15.644-31.288c1.785-3.353,3.577-6.675,5.383-9.954h306.063
	c1.825,3.314,3.637,6.671,5.441,10.061L430.06,213.38z"/>
<path style="fill:#C5D35E;" d="M163.31,92.691H348.69c9.605,0,29.62,26.626,50.298,61.793H113.006
	C133.683,119.316,153.7,92.691,163.31,92.691z"/>
<g>
	<path style="fill:#E65F58;" d="M85.948,69.083l34.252,41.431c-1.916,2.617-3.824,5.316-5.721,8.09L67.931,80.85L85.948,69.083z"/>
	<path style="fill:#E65F58;" d="M38.052,134.341l58.039,13.656c-1.757,3.031-3.477,6.058-5.161,9.071
		c-0.677,0.669-1.283,1.415-1.724,2.295l-1.999,3.999l-54.595,3.639L38.052,134.341z"/>
</g>
<path style="fill:#C5D35E;" d="M256,445.794c-125.577,0-238.345-113.922-238.345-167.724c0-46.386,39.015-52.153,50.33-52.854
	c13.005,9.072,65.071,44.026,95.325,44.026c16.681,0,33-4.659,48.767-9.168c15.285-4.362,29.707-8.487,43.922-8.487
	c14.215,0,28.638,4.125,43.922,8.487c15.767,4.509,32.086,9.168,48.767,9.168c30.253,0,82.315-34.951,95.323-44.025
	c11.358,0.706,50.332,6.491,50.332,52.853C494.345,331.872,381.577,445.794,256,445.794z"/>
<path style="fill:#334F55;" d="M390.707,207.445c-9.44-16.332-27.017-26.479-45.871-26.479s-36.431,10.147-45.871,26.479
	c-1.586,2.733-1.586,6.103,0,8.836c9.44,16.332,27.017,26.478,45.871,26.478s36.431-10.147,45.871-26.478
	C392.293,213.548,392.293,210.178,390.707,207.445z"/>
<path style="fill:#EAE8D2;" d="M344.836,225.104c-10.767,0-20.914-4.97-27.56-13.241c6.647-8.271,16.793-13.241,27.56-13.241
	s20.914,4.97,27.56,13.241C365.75,220.134,355.603,225.104,344.836,225.104z"/>
<path style="fill:#334F55;" d="M168.284,180.966c-18.854,0-36.431,10.147-45.871,26.479c-1.586,2.733-1.586,6.103,0,8.836
	c9.44,16.332,27.017,26.478,45.871,26.478s36.431-10.147,45.871-26.478c1.586-2.733,1.586-6.103,0-8.836
	C204.715,191.113,187.138,180.966,168.284,180.966z"/>
<path style="fill:#EAE8D2;" d="M168.284,225.104c-10.767,0-20.914-4.97-27.56-13.241c6.647-8.271,16.793-13.241,27.56-13.241
	s20.914,4.97,27.56,13.241C189.198,220.134,179.052,225.104,168.284,225.104z"/>
<path style="fill:#334F55;" d="M449.879,292.691c-0.948,0.603-95.664,60.414-154.155,60.414c-56.879,0-114.922-31.741-161.569-57.25
	l-6.345-3.465c-53.241-29.039-83.646-4.5-84.914-3.444c-2.069,1.728-3.241,4.306-3.172,7.004c0.069,2.698,1.371,5.22,3.535,6.836
	c2.181,1.638,53.905,40.341,93.698,62.448c19.698,10.948,39.155,13.905,56.224,13.905c11.767,0,22.405-1.405,31.207-2.569
	c5.655-0.75,10.543-1.397,13.957-1.397l2.621,0.026c45.56,0.634,84.25-3.996,114.81-13.681
	c56.336-17.866,102.293-52.896,104.224-54.379c3.741-2.879,4.56-8.194,1.853-12.065C459.147,291.216,453.871,290.16,449.879,292.691
	z"/>
<path style="fill:#C5D35E;" d="M222.078,359.066c-20.405,2.711-48.362,6.401-76.552-9.263c-27.509-15.285-61.922-39.5-79.741-52.392
	c10.672-2.724,28.655-3.116,53.577,10.478l6.328,3.457c29.888,16.345,64.284,35.159,100.681,47.159
	C224.991,358.678,223.552,358.867,222.078,359.066z"/>
<g>
</g>
<g>
</g>
<g>
</g>
<g>
</g>
<g>
</g>
<g>
</g>
<g>
</g>
<g>
</g>
<g>
</g>
<g>
</g>
<g>
</g>
<g>
</g>
<g>
</g>
<g>
</g>
<g>
</g>
</svg>
