<?xml version="1.0" encoding="iso-8859-1"?>
<!-- Generator: Adobe Illustrator 19.0.0, SVG Export Plug-In . SVG Version: 6.00 Build 0)  -->
<svg version="1.1" id="Layer_1" xmlns="http://www.w3.org/2000/svg" xmlns:xlink="http://www.w3.org/1999/xlink" x="0px" y="0px"
	 viewBox="0 0 512 512" style="enable-background:new 0 0 512 512;" xml:space="preserve">
<path style="fill:#334F55;" d="M448.195,225.875c-4.479-9.442-11.06-22.859-18.888-37.513l-5.002-10.004
	c-0.434-0.865-1.029-1.598-1.695-2.256c-21.605-38.673-49.934-80.642-71.152-80.642H169.22c-9.694,0-20.876,8.788-32.221,21.993
	L89.881,38.926c-1.331-2.22-3.593-3.733-6.152-4.114c-2.619-0.402-5.178,0.398-7.093,2.131l-43.39,39.051
	c-3.559,3.199-3.847,8.67-0.661,12.237l44.184,49.38l-67.141-7.389c-2.466-0.292-4.915,0.517-6.737,2.165
	C1.051,134.032,0,136.384,0,138.85v56.407c0,2.377,0.975,4.648,2.695,6.288c1.619,1.538,3.763,2.39,5.983,2.39
	c0.144,0,0.288-0.004,0.432-0.013l76.098-3.804c-5.128,9.978-9.477,18.911-12.725,25.757c-24.83,2.11-63.805,18.305-63.805,69.178
	c0,33.203,30.449,78.877,77.585,116.352c52.652,41.873,116.102,65.885,174.076,65.885s121.424-24.013,174.076-65.885
	C481.551,373.93,512,328.257,512,295.053C512,244.18,473.026,227.986,448.195,225.875z"/>
<path style="fill:#E4AD4B;" d="M431.449,231.46c-19.822,13.402-59.729,37.559-79.992,37.559c-13.975,0-28.153-4.055-43.178-8.343
	c-15.5-4.432-31.542-9.013-47.941-9.013s-32.441,4.58-47.941,9.013c-15.025,4.288-29.203,8.343-43.178,8.343
	c-20.237,0-60.161-24.157-79.992-37.559l15.379-30.757c1.755-3.297,3.516-6.562,5.292-9.785h300.875
	c1.794,3.257,3.575,6.558,5.349,9.891L431.449,231.46z"/>
<path style="fill:#C5D35E;" d="M169.22,112.816h182.237c9.442,0,29.118,26.174,49.446,60.746H119.769
	c1.406-2.391,2.801-4.705,4.198-7.01l1.102-0.986l-0.301-0.337c7.548-12.382,14.866-23.32,21.507-31.998l0.141-0.085l-0.033-0.056
	C155.966,120.59,164.109,112.816,169.22,112.816z"/>
<g>
	<path style="fill:#E4AD4B;" d="M80.415,56.888l45.131,75.211c-4.405,6.118-8.764,12.694-13.006,19.464l-61.252-68.46L80.415,56.888
		z"/>
	<path style="fill:#E4AD4B;" d="M17.356,148.536l76.745,8.445l9.075,10.143c-1.74,3.001-3.443,5.996-5.108,8.978
		c-0.666,0.657-1.261,1.392-1.694,2.256l-1.961,3.922l-77.056,3.854V148.536z"/>
</g>
<path style="fill:#C5D35E;" d="M260.339,459.935c-123.449,0-234.305-111.992-234.305-164.881c0-45.6,38.353-51.269,49.477-51.958
	c12.785,8.919,63.968,43.28,93.709,43.28c16.398,0,32.441-4.58,47.941-9.013c15.025-4.288,29.203-8.343,43.178-8.343
	c13.975,0,28.153,4.055,43.178,8.343c15.5,4.432,31.542,9.013,47.941,9.013c29.74,0,80.92-34.359,93.708-43.279
	c11.166,0.694,49.479,6.381,49.479,51.957C494.644,347.943,383.788,459.935,260.339,459.935z"/>
<path style="fill:#334F55;" d="M392.763,225.625c-9.28-16.055-26.559-26.03-45.093-26.03s-35.814,9.975-45.093,26.03
	c-1.559,2.686-1.559,6,0,8.686c9.28,16.055,26.559,26.03,45.093,26.03s35.814-9.975,45.093-26.03
	C394.322,231.625,394.322,228.312,392.763,225.625z"/>
<path style="fill:#EAE8D2;" d="M347.669,242.985c-10.585,0-20.559-4.886-27.093-13.017c6.534-8.131,16.509-13.017,27.093-13.017
	s20.559,4.886,27.093,13.017C368.229,238.1,358.254,242.985,347.669,242.985z"/>
<path style="fill:#334F55;" d="M174.11,199.596c-18.534,0-35.814,9.975-45.093,26.03c-1.559,2.686-1.559,6,0,8.686
	c9.28,16.055,26.559,26.03,45.093,26.03s35.814-9.975,45.093-26.03c1.559-2.686,1.559-6,0-8.686
	C209.924,209.57,192.644,199.596,174.11,199.596z"/>
<path style="fill:#EAE8D2;" d="M174.11,242.985c-10.585,0-20.559-4.886-27.093-13.017c6.534-8.131,16.509-13.017,27.093-13.017
	s20.559,4.886,27.093,13.017C194.67,238.1,184.695,242.985,174.11,242.985z"/>
<path style="fill:#334F55;" d="M390.508,321.087c0,29.521-66.907,60.746-130.169,60.746s-130.169-31.225-130.169-60.746v-8.678
	h-17.356v8.678c0,47.678,87.373,78.102,147.525,78.102s147.525-30.424,147.525-78.102v-8.678h-17.356V321.087z"/>
<g>
</g>
<g>
</g>
<g>
</g>
<g>
</g>
<g>
</g>
<g>
</g>
<g>
</g>
<g>
</g>
<g>
</g>
<g>
</g>
<g>
</g>
<g>
</g>
<g>
</g>
<g>
</g>
<g>
</g>
</svg>
