<?xml version="1.0" encoding="iso-8859-1"?>
<!-- Generator: Adobe Illustrator 19.0.0, SVG Export Plug-In . SVG Version: 6.00 Build 0)  -->
<svg version="1.1" id="Layer_1" xmlns="http://www.w3.org/2000/svg" xmlns:xlink="http://www.w3.org/1999/xlink" x="0px" y="0px"
	 viewBox="0 0 512 512" style="enable-background:new 0 0 512 512;" xml:space="preserve">
<path style="fill:#362928;" d="M451.399,296.142C439.937,400.445,457.323,512,256.002,512S72.065,400.446,60.603,296.142
	C37.677,87.535,76.91,0,255.992,0C435.091,0,474.324,87.535,451.399,296.142z"/>
<path style="fill:#2E2322;" d="M80.543,296.142C58.051,91.471,95.409,3.356,265.964,0.104C262.684,0.042,259.371,0,255.992,0
	C76.91,0,37.677,87.535,60.603,296.142C72.065,400.446,54.679,512,256.002,512c3.387,0,6.706-0.034,9.97-0.097
	C75.202,508.247,91.813,398.69,80.543,296.142z"/>
<path style="fill:#FFE8D1;" d="M377.255,221.257H134.746c-16.715,0-30.264,13.53-30.264,30.22v32.625
	c0,27.24,22.115,49.323,49.397,49.323h204.244c27.281,0,49.397-22.083,49.397-49.323v-32.625
	C407.519,234.786,393.969,221.257,377.255,221.257z"/>
<path style="fill:#EBC7A4;" d="M123.884,284.102v-32.624c0-16.69,13.55-30.219,30.264-30.219h-19.402
	c-16.715,0-30.264,13.53-30.264,30.219v32.624c0,27.24,22.115,49.323,49.397,49.323h19.402
	C146,333.424,123.884,311.342,123.884,284.102z"/>
<path style="fill:#F75534;" d="M464.034,187.402H47.967c-2.381,0-4.311-1.93-4.311-4.311V121.87c0-2.381,1.93-4.311,4.311-4.311
	h416.067c2.381,0,4.311,1.93,4.311,4.311v61.222C468.346,185.471,466.416,187.402,464.034,187.402z"/>
<path style="fill:#BD391E;" d="M63.057,187.402v-69.845h-15.09c-2.381,0-4.311,1.93-4.311,4.311v61.222
	c0,2.381,1.93,4.311,4.311,4.311h15.09V187.402z"/>
<path style="fill:#D6D6D6;" d="M322.12,198.644H189.881c-6.776,0-12.268-5.493-12.268-12.269v-67.793
	c0-6.776,5.493-12.268,12.268-12.268h132.237c6.776,0,12.268,5.493,12.268,12.268v67.793
	C334.388,193.151,328.895,198.644,322.12,198.644z"/>
<path style="fill:#B3B3B3;" d="M197.015,186.375v-67.793c0-6.776,5.493-12.269,12.269-12.269h-19.402
	c-6.776,0-12.269,5.493-12.269,12.269v67.793c0,6.776,5.493,12.269,12.269,12.269h19.402
	C202.508,198.644,197.015,193.151,197.015,186.375z"/>
<g>
	<path style="fill:#F75534;" d="M225.685,178.348c-4.465,0-8.084-3.618-8.084-8.084v-35.57c0-4.465,3.62-8.084,8.084-8.084
		s8.084,3.618,8.084,8.084v35.57C233.769,174.73,230.15,178.348,225.685,178.348z"/>
	<path style="fill:#F75534;" d="M286.316,178.348c-4.465,0-8.084-3.618-8.084-8.084v-35.57c0-4.465,3.618-8.084,8.084-8.084
		c4.465,0,8.084,3.618,8.084,8.084v35.57C294.401,174.73,290.782,178.348,286.316,178.348z"/>
	<path style="fill:#F75534;" d="M256.001,178.348c-4.465,0-8.084-3.618-8.084-8.084v-35.57c0-4.465,3.62-8.084,8.084-8.084
		c4.465,0,8.084,3.618,8.084,8.084v35.57C264.085,174.73,260.465,178.348,256.001,178.348z"/>
</g>
<g>
	<path style="fill:#2B2121;" d="M195.833,283.258c-5.209,0-11.197-0.37-17.474-1.474c-17.638-3.108-29.768-14.725-30.276-15.217
		c-3.204-3.11-3.279-8.229-0.168-11.431c3.104-3.196,8.207-3.277,11.411-0.188c0.237,0.225,9.327,8.709,21.837,10.913
		c15.603,2.748,29.191,0.065,29.327,0.039c4.377-0.887,8.641,1.945,9.527,6.318c0.886,4.376-1.944,8.642-6.32,9.527
		C213.252,281.835,206.046,283.258,195.833,283.258z"/>
	<path style="fill:#2B2121;" d="M316.167,283.258c-10.213,0-17.417-1.423-17.866-1.514c-4.376-0.885-7.206-5.15-6.318-9.527
		c0.885-4.376,5.144-7.208,9.527-6.319c0.121,0.024,13.871,2.687,29.326-0.039c12.595-2.218,21.729-10.806,21.816-10.893
		c3.204-3.112,8.323-3.034,11.431,0.168c3.111,3.204,3.034,8.322-0.168,11.431c-0.508,0.492-12.638,12.109-30.276,15.217
		C327.366,282.888,321.376,283.258,316.167,283.258z"/>
</g>
<g>
</g>
<g>
</g>
<g>
</g>
<g>
</g>
<g>
</g>
<g>
</g>
<g>
</g>
<g>
</g>
<g>
</g>
<g>
</g>
<g>
</g>
<g>
</g>
<g>
</g>
<g>
</g>
<g>
</g>
</svg>
